<svg width="85" height="94" viewBox="0 0 85 94" fill="none" xmlns="http://www.w3.org/2000/svg">
<path fill-rule="evenodd" clip-rule="evenodd" d="M66.7071 7.29296L60.3431 0.929002C59.9526 0.538477 59.3194 0.538477 58.9289 0.929002C58.5384 1.31953 58.5384 1.95269 58.9289 2.34322L63.5857 7.00007L7.99995 7.00006C7.44767 7.00006 6.99995 7.44778 6.99995 8.00006L6.99995 63.5858L2.34309 58.929C1.95257 58.5385 1.3194 58.5385 0.92888 58.929C0.538355 59.3195 0.538355 59.9527 0.92888 60.3432L7.29284 66.7072C7.68336 67.0977 8.31653 67.0977 8.70705 66.7072L15.071 60.3432C15.4615 59.9527 15.4615 59.3195 15.071 58.929C14.6805 58.5385 14.0473 58.5385 13.6568 58.929L8.99995 63.5858L8.99995 9.00006L63.5857 9.00007L58.9289 13.6569C58.5384 14.0474 58.5384 14.6806 58.9289 15.0711C59.3194 15.4617 59.9526 15.4617 60.3431 15.0711L66.7071 8.70718C67.0976 8.31665 67.0976 7.68349 66.7071 7.29296ZM5.13631 93.9091C4.7954 93.9091 4.49143 93.8807 4.22438 93.8239C3.95734 93.7728 3.77268 93.7216 3.6704 93.6705L4.18177 91.8978C4.6704 92.0228 5.10222 92.0682 5.47722 92.0341C5.85222 92.0001 6.18461 91.8325 6.47438 91.5313C6.76984 91.2359 7.03972 90.7557 7.28404 90.091L7.65904 89.0682L2.81813 75.9091H4.99995L8.61359 86.341H8.74995L12.3636 75.9091H14.5454L8.98859 90.9091C8.73859 91.5853 8.42893 92.145 8.05961 92.5881C7.69029 93.037 7.26131 93.3694 6.77268 93.5853C6.28972 93.8012 5.74427 93.9091 5.13631 93.9091ZM79.4772 7.26142L76.3409 1.90915H74.0227L78.1818 8.45461L74.0227 15.0001H76.3409L79.4772 9.92051L82.6136 15.0001H84.9318L80.7045 8.45461L84.9318 1.90915H82.6136L79.4772 7.26142Z" fill="#34366D"/>
</svg>
